<?xml version="1.0" encoding="UTF-8" ?>
<svg version="1.1" width="64" height="32" xmlns="http://www.w3.org/2000/svg" shape-rendering="crispEdges">
<rect x="42" y="1" width="1" height="1" fill="#000000" />
<rect x="43" y="1" width="1" height="1" fill="#000000" />
<rect x="44" y="1" width="1" height="1" fill="#000000" />
<rect x="45" y="1" width="1" height="1" fill="#000000" />
<rect x="46" y="1" width="1" height="1" fill="#000000" />
<rect x="47" y="1" width="1" height="1" fill="#000000" />
<rect x="40" y="2" width="1" height="1" fill="#000000" />
<rect x="41" y="2" width="1" height="1" fill="#000000" />
<rect x="42" y="2" width="1" height="1" fill="#4B8341" />
<rect x="43" y="2" width="1" height="1" fill="#4B8341" />
<rect x="44" y="2" width="1" height="1" fill="#4B8341" />
<rect x="45" y="2" width="1" height="1" fill="#4B8341" />
<rect x="46" y="2" width="1" height="1" fill="#2D4548" />
<rect x="47" y="2" width="1" height="1" fill="#000000" />
<rect x="48" y="2" width="1" height="1" fill="#000000" />
<rect x="39" y="3" width="1" height="1" fill="#000000" />
<rect x="40" y="3" width="1" height="1" fill="#4B8341" />
<rect x="41" y="3" width="1" height="1" fill="#4B8341" />
<rect x="42" y="3" width="1" height="1" fill="#DFEF7C" />
<rect x="43" y="3" width="1" height="1" fill="#4B8341" />
<rect x="44" y="3" width="1" height="1" fill="#DFEF7C" />
<rect x="45" y="3" width="1" height="1" fill="#4B8341" />
<rect x="46" y="3" width="1" height="1" fill="#4B8341" />
<rect x="47" y="3" width="1" height="1" fill="#2D4548" />
<rect x="48" y="3" width="1" height="1" fill="#2D4548" />
<rect x="49" y="3" width="1" height="1" fill="#000000" />
<rect x="50" y="3" width="1" height="1" fill="#000000" />
<rect x="38" y="4" width="1" height="1" fill="#000000" />
<rect x="39" y="4" width="1" height="1" fill="#4B8341" />
<rect x="40" y="4" width="1" height="1" fill="#4B8341" />
<rect x="41" y="4" width="1" height="1" fill="#DFEF7C" />
<rect x="42" y="4" width="1" height="1" fill="#4B8341" />
<rect x="43" y="4" width="1" height="1" fill="#DFEF7C" />
<rect x="44" y="4" width="1" height="1" fill="#4B8341" />
<rect x="45" y="4" width="1" height="1" fill="#DFEF7C" />
<rect x="46" y="4" width="1" height="1" fill="#4B8341" />
<rect x="47" y="4" width="1" height="1" fill="#4B8341" />
<rect x="48" y="4" width="1" height="1" fill="#4B8341" />
<rect x="49" y="4" width="1" height="1" fill="#2D4548" />
<rect x="50" y="4" width="1" height="1" fill="#000000" />
<rect x="51" y="4" width="1" height="1" fill="#000000" />
<rect x="18" y="5" width="1" height="1" fill="#000000" />
<rect x="19" y="5" width="1" height="1" fill="#000000" />
<rect x="20" y="5" width="1" height="1" fill="#000000" />
<rect x="21" y="5" width="1" height="1" fill="#000000" />
<rect x="37" y="5" width="1" height="1" fill="#000000" />
<rect x="38" y="5" width="1" height="1" fill="#4B8341" />
<rect x="39" y="5" width="1" height="1" fill="#4B8341" />
<rect x="40" y="5" width="1" height="1" fill="#DFEF7C" />
<rect x="41" y="5" width="1" height="1" fill="#4B8341" />
<rect x="42" y="5" width="1" height="1" fill="#DFEF7C" />
<rect x="43" y="5" width="1" height="1" fill="#DFEF7C" />
<rect x="44" y="5" width="1" height="1" fill="#DFEF7C" />
<rect x="45" y="5" width="1" height="1" fill="#4B8341" />
<rect x="46" y="5" width="1" height="1" fill="#DFEF7C" />
<rect x="47" y="5" width="1" height="1" fill="#DFEF7C" />
<rect x="48" y="5" width="1" height="1" fill="#4B8341" />
<rect x="49" y="5" width="1" height="1" fill="#2D4548" />
<rect x="50" y="5" width="1" height="1" fill="#000000" />
<rect x="51" y="5" width="1" height="1" fill="#000000" />
<rect x="15" y="6" width="1" height="1" fill="#000000" />
<rect x="16" y="6" width="1" height="1" fill="#000000" />
<rect x="17" y="6" width="1" height="1" fill="#000000" />
<rect x="18" y="6" width="1" height="1" fill="#2D4548" />
<rect x="19" y="6" width="1" height="1" fill="#4B8341" />
<rect x="20" y="6" width="1" height="1" fill="#4B8341" />
<rect x="21" y="6" width="1" height="1" fill="#000000" />
<rect x="22" y="6" width="1" height="1" fill="#000000" />
<rect x="36" y="6" width="1" height="1" fill="#000000" />
<rect x="37" y="6" width="1" height="1" fill="#4B8341" />
<rect x="38" y="6" width="1" height="1" fill="#DFEF7C" />
<rect x="39" y="6" width="1" height="1" fill="#DFEF7C" />
<rect x="40" y="6" width="1" height="1" fill="#4B8341" />
<rect x="41" y="6" width="1" height="1" fill="#DFEF7C" />
<rect x="42" y="6" width="1" height="1" fill="#DFEF7C" />
<rect x="43" y="6" width="1" height="1" fill="#DFEF7C" />
<rect x="44" y="6" width="1" height="1" fill="#DFEF7C" />
<rect x="45" y="6" width="1" height="1" fill="#DFEF7C" />
<rect x="46" y="6" width="1" height="1" fill="#4B8341" />
<rect x="47" y="6" width="1" height="1" fill="#DFEF7C" />
<rect x="48" y="6" width="1" height="1" fill="#4B8341" />
<rect x="49" y="6" width="1" height="1" fill="#2D4548" />
<rect x="50" y="6" width="1" height="1" fill="#000000" />
<rect x="51" y="6" width="1" height="1" fill="#000000" />
<rect x="14" y="7" width="1" height="1" fill="#000000" />
<rect x="15" y="7" width="1" height="1" fill="#2D4548" />
<rect x="16" y="7" width="1" height="1" fill="#4B8341" />
<rect x="17" y="7" width="1" height="1" fill="#4B8341" />
<rect x="18" y="7" width="1" height="1" fill="#4B8341" />
<rect x="19" y="7" width="1" height="1" fill="#DFEF7C" />
<rect x="20" y="7" width="1" height="1" fill="#4B8341" />
<rect x="21" y="7" width="1" height="1" fill="#000000" />
<rect x="22" y="7" width="1" height="1" fill="#000000" />
<rect x="35" y="7" width="1" height="1" fill="#000000" />
<rect x="36" y="7" width="1" height="1" fill="#4B8341" />
<rect x="37" y="7" width="1" height="1" fill="#4B8341" />
<rect x="38" y="7" width="1" height="1" fill="#DFEF7C" />
<rect x="39" y="7" width="1" height="1" fill="#DFEF7C" />
<rect x="40" y="7" width="1" height="1" fill="#DFEF7C" />
<rect x="41" y="7" width="1" height="1" fill="#DFEF7C" />
<rect x="42" y="7" width="1" height="1" fill="#DFEF7C" />
<rect x="43" y="7" width="1" height="1" fill="#DFEF7C" />
<rect x="44" y="7" width="1" height="1" fill="#DFEF7C" />
<rect x="45" y="7" width="1" height="1" fill="#4B8341" />
<rect x="46" y="7" width="1" height="1" fill="#DFEF7C" />
<rect x="47" y="7" width="1" height="1" fill="#4B8341" />
<rect x="48" y="7" width="1" height="1" fill="#4B8341" />
<rect x="49" y="7" width="1" height="1" fill="#2D4548" />
<rect x="50" y="7" width="1" height="1" fill="#000000" />
<rect x="51" y="7" width="1" height="1" fill="#000000" />
<rect x="14" y="8" width="1" height="1" fill="#000000" />
<rect x="15" y="8" width="1" height="1" fill="#4B8341" />
<rect x="16" y="8" width="1" height="1" fill="#4B8341" />
<rect x="17" y="8" width="1" height="1" fill="#DFEF7C" />
<rect x="18" y="8" width="1" height="1" fill="#4B8341" />
<rect x="19" y="8" width="1" height="1" fill="#DFEF7C" />
<rect x="20" y="8" width="1" height="1" fill="#DFEF7C" />
<rect x="21" y="8" width="1" height="1" fill="#DFEF7C" />
<rect x="22" y="8" width="1" height="1" fill="#000000" />
<rect x="23" y="8" width="1" height="1" fill="#000000" />
<rect x="34" y="8" width="1" height="1" fill="#000000" />
<rect x="35" y="8" width="1" height="1" fill="#4B8341" />
<rect x="36" y="8" width="1" height="1" fill="#4B8341" />
<rect x="37" y="8" width="1" height="1" fill="#DFEF7C" />
<rect x="38" y="8" width="1" height="1" fill="#DFEF7C" />
<rect x="39" y="8" width="1" height="1" fill="#DFEF7C" />
<rect x="40" y="8" width="1" height="1" fill="#DFEF7C" />
<rect x="41" y="8" width="1" height="1" fill="#DFEF7C" />
<rect x="42" y="8" width="1" height="1" fill="#DFEF7C" />
<rect x="43" y="8" width="1" height="1" fill="#DFEF7C" />
<rect x="44" y="8" width="1" height="1" fill="#4B8341" />
<rect x="45" y="8" width="1" height="1" fill="#DFEF7C" />
<rect x="46" y="8" width="1" height="1" fill="#4B8341" />
<rect x="47" y="8" width="1" height="1" fill="#4B8341" />
<rect x="48" y="8" width="1" height="1" fill="#202734" />
<rect x="49" y="8" width="1" height="1" fill="#2D4548" />
<rect x="50" y="8" width="1" height="1" fill="#000000" />
<rect x="51" y="8" width="1" height="1" fill="#000000" />
<rect x="13" y="9" width="1" height="1" fill="#000000" />
<rect x="14" y="9" width="1" height="1" fill="#2D4548" />
<rect x="15" y="9" width="1" height="1" fill="#4B8341" />
<rect x="16" y="9" width="1" height="1" fill="#DFEF7C" />
<rect x="17" y="9" width="1" height="1" fill="#4B8341" />
<rect x="18" y="9" width="1" height="1" fill="#DFEF7C" />
<rect x="19" y="9" width="1" height="1" fill="#DFEF7C" />
<rect x="20" y="9" width="1" height="1" fill="#DFEF7C" />
<rect x="21" y="9" width="1" height="1" fill="#4B8341" />
<rect x="22" y="9" width="1" height="1" fill="#4B8341" />
<rect x="23" y="9" width="1" height="1" fill="#000000" />
<rect x="24" y="9" width="1" height="1" fill="#000000" />
<rect x="34" y="9" width="1" height="1" fill="#000000" />
<rect x="35" y="9" width="1" height="1" fill="#4B8341" />
<rect x="36" y="9" width="1" height="1" fill="#DFEF7C" />
<rect x="37" y="9" width="1" height="1" fill="#DFEF7C" />
<rect x="38" y="9" width="1" height="1" fill="#DFEF7C" />
<rect x="39" y="9" width="1" height="1" fill="#DFEF7C" />
<rect x="40" y="9" width="1" height="1" fill="#DFEF7C" />
<rect x="41" y="9" width="1" height="1" fill="#DFEF7C" />
<rect x="42" y="9" width="1" height="1" fill="#DFEF7C" />
<rect x="43" y="9" width="1" height="1" fill="#4B8341" />
<rect x="44" y="9" width="1" height="1" fill="#DFEF7C" />
<rect x="45" y="9" width="1" height="1" fill="#4B8341" />
<rect x="46" y="9" width="1" height="1" fill="#4B8341" />
<rect x="47" y="9" width="1" height="1" fill="#202734" />
<rect x="48" y="9" width="1" height="1" fill="#2D4548" />
<rect x="49" y="9" width="1" height="1" fill="#2D4548" />
<rect x="50" y="9" width="1" height="1" fill="#000000" />
<rect x="51" y="9" width="1" height="1" fill="#000000" />
<rect x="13" y="10" width="1" height="1" fill="#000000" />
<rect x="14" y="10" width="1" height="1" fill="#2D4548" />
<rect x="15" y="10" width="1" height="1" fill="#202734" />
<rect x="16" y="10" width="1" height="1" fill="#4B8341" />
<rect x="17" y="10" width="1" height="1" fill="#DFEF7C" />
<rect x="18" y="10" width="1" height="1" fill="#DFEF7C" />
<rect x="19" y="10" width="1" height="1" fill="#DFEF7C" />
<rect x="20" y="10" width="1" height="1" fill="#DFEF7C" />
<rect x="21" y="10" width="1" height="1" fill="#DFEF7C" />
<rect x="22" y="10" width="1" height="1" fill="#DFEF7C" />
<rect x="23" y="10" width="1" height="1" fill="#4B8341" />
<rect x="24" y="10" width="1" height="1" fill="#000000" />
<rect x="25" y="10" width="1" height="1" fill="#000000" />
<rect x="33" y="10" width="1" height="1" fill="#000000" />
<rect x="34" y="10" width="1" height="1" fill="#4B8341" />
<rect x="35" y="10" width="1" height="1" fill="#DFEF7C" />
<rect x="36" y="10" width="1" height="1" fill="#DFEF7C" />
<rect x="37" y="10" width="1" height="1" fill="#DFEF7C" />
<rect x="38" y="10" width="1" height="1" fill="#DFEF7C" />
<rect x="39" y="10" width="1" height="1" fill="#DFEF7C" />
<rect x="40" y="10" width="1" height="1" fill="#DFEF7C" />
<rect x="41" y="10" width="1" height="1" fill="#DFEF7C" />
<rect x="42" y="10" width="1" height="1" fill="#DFEF7C" />
<rect x="43" y="10" width="1" height="1" fill="#DFEF7C" />
<rect x="44" y="10" width="1" height="1" fill="#4B8341" />
<rect x="45" y="10" width="1" height="1" fill="#4B8341" />
<rect x="46" y="10" width="1" height="1" fill="#4B8341" />
<rect x="47" y="10" width="1" height="1" fill="#2D4548" />
<rect x="48" y="10" width="1" height="1" fill="#2D4548" />
<rect x="49" y="10" width="1" height="1" fill="#000000" />
<rect x="50" y="10" width="1" height="1" fill="#000000" />
<rect x="14" y="11" width="1" height="1" fill="#000000" />
<rect x="15" y="11" width="1" height="1" fill="#2D4548" />
<rect x="16" y="11" width="1" height="1" fill="#4B8341" />
<rect x="17" y="11" width="1" height="1" fill="#4B8341" />
<rect x="18" y="11" width="1" height="1" fill="#DFEF7C" />
<rect x="19" y="11" width="1" height="1" fill="#DFEF7C" />
<rect x="20" y="11" width="1" height="1" fill="#DFEF7C" />
<rect x="21" y="11" width="1" height="1" fill="#DFEF7C" />
<rect x="22" y="11" width="1" height="1" fill="#DFEF7C" />
<rect x="23" y="11" width="1" height="1" fill="#4B8341" />
<rect x="24" y="11" width="1" height="1" fill="#000000" />
<rect x="25" y="11" width="1" height="1" fill="#000000" />
<rect x="32" y="11" width="1" height="1" fill="#000000" />
<rect x="33" y="11" width="1" height="1" fill="#4B8341" />
<rect x="34" y="11" width="1" height="1" fill="#DFEF7C" />
<rect x="35" y="11" width="1" height="1" fill="#DFEF7C" />
<rect x="36" y="11" width="1" height="1" fill="#5C1208" />
<rect x="37" y="11" width="1" height="1" fill="#CA4331" />
<rect x="38" y="11" width="1" height="1" fill="#DFEF7C" />
<rect x="39" y="11" width="1" height="1" fill="#DFEF7C" />
<rect x="40" y="11" width="1" height="1" fill="#DFEF7C" />
<rect x="41" y="11" width="1" height="1" fill="#DFEF7C" />
<rect x="42" y="11" width="1" height="1" fill="#DFEF7C" />
<rect x="43" y="11" width="1" height="1" fill="#4B8341" />
<rect x="44" y="11" width="1" height="1" fill="#4B8341" />
<rect x="45" y="11" width="1" height="1" fill="#4B8341" />
<rect x="46" y="11" width="1" height="1" fill="#202734" />
<rect x="47" y="11" width="1" height="1" fill="#2D4548" />
<rect x="48" y="11" width="1" height="1" fill="#000000" />
<rect x="49" y="11" width="1" height="1" fill="#000000" />
<rect x="14" y="12" width="1" height="1" fill="#000000" />
<rect x="15" y="12" width="1" height="1" fill="#202734" />
<rect x="16" y="12" width="1" height="1" fill="#4B8341" />
<rect x="17" y="12" width="1" height="1" fill="#4B8341" />
<rect x="18" y="12" width="1" height="1" fill="#DFEF7C" />
<rect x="19" y="12" width="1" height="1" fill="#DFEF7C" />
<rect x="20" y="12" width="1" height="1" fill="#DFEF7C" />
<rect x="21" y="12" width="1" height="1" fill="#DFEF7C" />
<rect x="22" y="12" width="1" height="1" fill="#DFEF7C" />
<rect x="23" y="12" width="1" height="1" fill="#DFEF7C" />
<rect x="24" y="12" width="1" height="1" fill="#000000" />
<rect x="25" y="12" width="1" height="1" fill="#000000" />
<rect x="31" y="12" width="1" height="1" fill="#000000" />
<rect x="32" y="12" width="1" height="1" fill="#4B8341" />
<rect x="33" y="12" width="1" height="1" fill="#DFEF7C" />
<rect x="34" y="12" width="1" height="1" fill="#DFEF7C" />
<rect x="35" y="12" width="1" height="1" fill="#CA4331" />
<rect x="36" y="12" width="1" height="1" fill="#5C1208" />
<rect x="37" y="12" width="1" height="1" fill="#5C1208" />
<rect x="38" y="12" width="1" height="1" fill="#5C1208" />
<rect x="39" y="12" width="1" height="1" fill="#DFEF7C" />
<rect x="40" y="12" width="1" height="1" fill="#DFEF7C" />
<rect x="41" y="12" width="1" height="1" fill="#DFEF7C" />
<rect x="42" y="12" width="1" height="1" fill="#4B8341" />
<rect x="43" y="12" width="1" height="1" fill="#DFEF7C" />
<rect x="44" y="12" width="1" height="1" fill="#4B8341" />
<rect x="45" y="12" width="1" height="1" fill="#4B8341" />
<rect x="46" y="12" width="1" height="1" fill="#2D4548" />
<rect x="47" y="12" width="1" height="1" fill="#2D4548" />
<rect x="48" y="12" width="1" height="1" fill="#000000" />
<rect x="49" y="12" width="1" height="1" fill="#000000" />
<rect x="14" y="13" width="1" height="1" fill="#000000" />
<rect x="15" y="13" width="1" height="1" fill="#2D4548" />
<rect x="16" y="13" width="1" height="1" fill="#202734" />
<rect x="17" y="13" width="1" height="1" fill="#4B8341" />
<rect x="18" y="13" width="1" height="1" fill="#4B8341" />
<rect x="19" y="13" width="1" height="1" fill="#DFEF7C" />
<rect x="20" y="13" width="1" height="1" fill="#DFEF7C" />
<rect x="21" y="13" width="1" height="1" fill="#DFEF7C" />
<rect x="22" y="13" width="1" height="1" fill="#DFEF7C" />
<rect x="23" y="13" width="1" height="1" fill="#DFEF7C" />
<rect x="24" y="13" width="1" height="1" fill="#4B8341" />
<rect x="25" y="13" width="1" height="1" fill="#000000" />
<rect x="26" y="13" width="1" height="1" fill="#000000" />
<rect x="29" y="13" width="1" height="1" fill="#000000" />
<rect x="30" y="13" width="1" height="1" fill="#000000" />
<rect x="31" y="13" width="1" height="1" fill="#4B8341" />
<rect x="32" y="13" width="1" height="1" fill="#DFEF7C" />
<rect x="33" y="13" width="1" height="1" fill="#DFEF7C" />
<rect x="34" y="13" width="1" height="1" fill="#CA4331" />
<rect x="35" y="13" width="1" height="1" fill="#5C1208" />
<rect x="36" y="13" width="1" height="1" fill="#5C1208" />
<rect x="37" y="13" width="1" height="1" fill="#5C1208" />
<rect x="38" y="13" width="1" height="1" fill="#5C1208" />
<rect x="39" y="13" width="1" height="1" fill="#3B0101" />
<rect x="40" y="13" width="1" height="1" fill="#DFEF7C" />
<rect x="41" y="13" width="1" height="1" fill="#DFEF7C" />
<rect x="42" y="13" width="1" height="1" fill="#DFEF7C" />
<rect x="43" y="13" width="1" height="1" fill="#4B8341" />
<rect x="44" y="13" width="1" height="1" fill="#4B8341" />
<rect x="45" y="13" width="1" height="1" fill="#202734" />
<rect x="46" y="13" width="1" height="1" fill="#2D4548" />
<rect x="47" y="13" width="1" height="1" fill="#000000" />
<rect x="48" y="13" width="1" height="1" fill="#000000" />
<rect x="15" y="14" width="1" height="1" fill="#000000" />
<rect x="16" y="14" width="1" height="1" fill="#2D4548" />
<rect x="17" y="14" width="1" height="1" fill="#4B8341" />
<rect x="18" y="14" width="1" height="1" fill="#DFEF7C" />
<rect x="19" y="14" width="1" height="1" fill="#4B8341" />
<rect x="20" y="14" width="1" height="1" fill="#DFEF7C" />
<rect x="21" y="14" width="1" height="1" fill="#DFEF7C" />
<rect x="22" y="14" width="1" height="1" fill="#DFEF7C" />
<rect x="23" y="14" width="1" height="1" fill="#DFEF7C" />
<rect x="24" y="14" width="1" height="1" fill="#DFEF7C" />
<rect x="25" y="14" width="1" height="1" fill="#4B8341" />
<rect x="26" y="14" width="1" height="1" fill="#000000" />
<rect x="27" y="14" width="1" height="1" fill="#000000" />
<rect x="28" y="14" width="1" height="1" fill="#000000" />
<rect x="29" y="14" width="1" height="1" fill="#4B8341" />
<rect x="30" y="14" width="1" height="1" fill="#4B8341" />
<rect x="31" y="14" width="1" height="1" fill="#DFEF7C" />
<rect x="32" y="14" width="1" height="1" fill="#DFEF7C" />
<rect x="33" y="14" width="1" height="1" fill="#CA4331" />
<rect x="34" y="14" width="1" height="1" fill="#5C1208" />
<rect x="35" y="14" width="1" height="1" fill="#CA4331" />
<rect x="36" y="14" width="1" height="1" fill="#5C1208" />
<rect x="37" y="14" width="1" height="1" fill="#3B0101" />
<rect x="38" y="14" width="1" height="1" fill="#5C1208" />
<rect x="39" y="14" width="1" height="1" fill="#3B0101" />
<rect x="40" y="14" width="1" height="1" fill="#DFEF7C" />
<rect x="41" y="14" width="1" height="1" fill="#DFEF7C" />
<rect x="42" y="14" width="1" height="1" fill="#4B8341" />
<rect x="43" y="14" width="1" height="1" fill="#4B8341" />
<rect x="44" y="14" width="1" height="1" fill="#4B8341" />
<rect x="45" y="14" width="1" height="1" fill="#2D4548" />
<rect x="46" y="14" width="1" height="1" fill="#2D4548" />
<rect x="47" y="14" width="1" height="1" fill="#000000" />
<rect x="48" y="14" width="1" height="1" fill="#000000" />
<rect x="15" y="15" width="1" height="1" fill="#000000" />
<rect x="16" y="15" width="1" height="1" fill="#2D4548" />
<rect x="17" y="15" width="1" height="1" fill="#4B8341" />
<rect x="18" y="15" width="1" height="1" fill="#4B8341" />
<rect x="19" y="15" width="1" height="1" fill="#DFEF7C" />
<rect x="20" y="15" width="1" height="1" fill="#DFEF7C" />
<rect x="21" y="15" width="1" height="1" fill="#DFEF7C" />
<rect x="22" y="15" width="1" height="1" fill="#5C1208" />
<rect x="23" y="15" width="1" height="1" fill="#DFEF7C" />
<rect x="24" y="15" width="1" height="1" fill="#DFEF7C" />
<rect x="25" y="15" width="1" height="1" fill="#4B8341" />
<rect x="26" y="15" width="1" height="1" fill="#000000" />
<rect x="27" y="15" width="1" height="1" fill="#000000" />
<rect x="28" y="15" width="1" height="1" fill="#4B8341" />
<rect x="29" y="15" width="1" height="1" fill="#4B8341" />
<rect x="30" y="15" width="1" height="1" fill="#DFEF7C" />
<rect x="31" y="15" width="1" height="1" fill="#DFEF7C" />
<rect x="32" y="15" width="1" height="1" fill="#5C1208" />
<rect x="33" y="15" width="1" height="1" fill="#5C1208" />
<rect x="34" y="15" width="1" height="1" fill="#5C1208" />
<rect x="35" y="15" width="1" height="1" fill="#5C1208" />
<rect x="36" y="15" width="1" height="1" fill="#3B0101" />
<rect x="37" y="15" width="1" height="1" fill="#5C1208" />
<rect x="38" y="15" width="1" height="1" fill="#3B0101" />
<rect x="39" y="15" width="1" height="1" fill="#3B0101" />
<rect x="40" y="15" width="1" height="1" fill="#DFEF7C" />
<rect x="41" y="15" width="1" height="1" fill="#4B8341" />
<rect x="42" y="15" width="1" height="1" fill="#4B8341" />
<rect x="43" y="15" width="1" height="1" fill="#4B8341" />
<rect x="44" y="15" width="1" height="1" fill="#202734" />
<rect x="45" y="15" width="1" height="1" fill="#2D4548" />
<rect x="46" y="15" width="1" height="1" fill="#000000" />
<rect x="47" y="15" width="1" height="1" fill="#000000" />
<rect x="15" y="16" width="1" height="1" fill="#000000" />
<rect x="16" y="16" width="1" height="1" fill="#4B8341" />
<rect x="17" y="16" width="1" height="1" fill="#4B8341" />
<rect x="18" y="16" width="1" height="1" fill="#4B8341" />
<rect x="19" y="16" width="1" height="1" fill="#DFEF7C" />
<rect x="20" y="16" width="1" height="1" fill="#3B0101" />
<rect x="21" y="16" width="1" height="1" fill="#5C1208" />
<rect x="22" y="16" width="1" height="1" fill="#5C1208" />
<rect x="23" y="16" width="1" height="1" fill="#5C1208" />
<rect x="24" y="16" width="1" height="1" fill="#DFEF7C" />
<rect x="25" y="16" width="1" height="1" fill="#4B8341" />
<rect x="26" y="16" width="1" height="1" fill="#000000" />
<rect x="27" y="16" width="1" height="1" fill="#000000" />
<rect x="28" y="16" width="1" height="1" fill="#4B8341" />
<rect x="29" y="16" width="1" height="1" fill="#DFEF7C" />
<rect x="30" y="16" width="1" height="1" fill="#DFEF7C" />
<rect x="31" y="16" width="1" height="1" fill="#DFEF7C" />
<rect x="32" y="16" width="1" height="1" fill="#CA4331" />
<rect x="33" y="16" width="1" height="1" fill="#5C1208" />
<rect x="34" y="16" width="1" height="1" fill="#5C1208" />
<rect x="35" y="16" width="1" height="1" fill="#5C1208" />
<rect x="36" y="16" width="1" height="1" fill="#5C1208" />
<rect x="37" y="16" width="1" height="1" fill="#3B0101" />
<rect x="38" y="16" width="1" height="1" fill="#3B0101" />
<rect x="39" y="16" width="1" height="1" fill="#DFEF7C" />
<rect x="40" y="16" width="1" height="1" fill="#DFEF7C" />
<rect x="41" y="16" width="1" height="1" fill="#DFEF7C" />
<rect x="42" y="16" width="1" height="1" fill="#4B8341" />
<rect x="43" y="16" width="1" height="1" fill="#4B8341" />
<rect x="44" y="16" width="1" height="1" fill="#202734" />
<rect x="45" y="16" width="1" height="1" fill="#2D4548" />
<rect x="46" y="16" width="1" height="1" fill="#000000" />
<rect x="47" y="16" width="1" height="1" fill="#000000" />
<rect x="14" y="17" width="1" height="1" fill="#000000" />
<rect x="15" y="17" width="1" height="1" fill="#000000" />
<rect x="16" y="17" width="1" height="1" fill="#202734" />
<rect x="17" y="17" width="1" height="1" fill="#4B8341" />
<rect x="18" y="17" width="1" height="1" fill="#4B8341" />
<rect x="19" y="17" width="1" height="1" fill="#DFEF7C" />
<rect x="20" y="17" width="1" height="1" fill="#3B0101" />
<rect x="21" y="17" width="1" height="1" fill="#5C1208" />
<rect x="22" y="17" width="1" height="1" fill="#5C1208" />
<rect x="23" y="17" width="1" height="1" fill="#5C1208" />
<rect x="24" y="17" width="1" height="1" fill="#CA4331" />
<rect x="25" y="17" width="1" height="1" fill="#DFEF7C" />
<rect x="26" y="17" width="1" height="1" fill="#4B8341" />
<rect x="27" y="17" width="1" height="1" fill="#000000" />
<rect x="28" y="17" width="1" height="1" fill="#000000" />
<rect x="29" y="17" width="1" height="1" fill="#4B8341" />
<rect x="30" y="17" width="1" height="1" fill="#DFEF7C" />
<rect x="31" y="17" width="1" height="1" fill="#DFEF7C" />
<rect x="32" y="17" width="1" height="1" fill="#5C1208" />
<rect x="33" y="17" width="1" height="1" fill="#5C1208" />
<rect x="34" y="17" width="1" height="1" fill="#3B0101" />
<rect x="35" y="17" width="1" height="1" fill="#5C1208" />
<rect x="36" y="17" width="1" height="1" fill="#5C1208" />
<rect x="37" y="17" width="1" height="1" fill="#3B0101" />
<rect x="38" y="17" width="1" height="1" fill="#3B0101" />
<rect x="39" y="17" width="1" height="1" fill="#DFEF7C" />
<rect x="40" y="17" width="1" height="1" fill="#DFEF7C" />
<rect x="41" y="17" width="1" height="1" fill="#4B8341" />
<rect x="42" y="17" width="1" height="1" fill="#4B8341" />
<rect x="43" y="17" width="1" height="1" fill="#4B8341" />
<rect x="44" y="17" width="1" height="1" fill="#202734" />
<rect x="45" y="17" width="1" height="1" fill="#2D4548" />
<rect x="46" y="17" width="1" height="1" fill="#000000" />
<rect x="47" y="17" width="1" height="1" fill="#000000" />
<rect x="14" y="18" width="1" height="1" fill="#000000" />
<rect x="15" y="18" width="1" height="1" fill="#000000" />
<rect x="16" y="18" width="1" height="1" fill="#202734" />
<rect x="17" y="18" width="1" height="1" fill="#4B8341" />
<rect x="18" y="18" width="1" height="1" fill="#4B8341" />
<rect x="19" y="18" width="1" height="1" fill="#4B8341" />
<rect x="20" y="18" width="1" height="1" fill="#DFEF7C" />
<rect x="21" y="18" width="1" height="1" fill="#3B0101" />
<rect x="22" y="18" width="1" height="1" fill="#5C1208" />
<rect x="23" y="18" width="1" height="1" fill="#5C1208" />
<rect x="24" y="18" width="1" height="1" fill="#5C1208" />
<rect x="25" y="18" width="1" height="1" fill="#DFEF7C" />
<rect x="26" y="18" width="1" height="1" fill="#DFEF7C" />
<rect x="27" y="18" width="1" height="1" fill="#4B8341" />
<rect x="28" y="18" width="1" height="1" fill="#000000" />
<rect x="29" y="18" width="1" height="1" fill="#000000" />
<rect x="30" y="18" width="1" height="1" fill="#DFEF7C" />
<rect x="31" y="18" width="1" height="1" fill="#DFEF7C" />
<rect x="32" y="18" width="1" height="1" fill="#000000" />
<rect x="33" y="18" width="1" height="1" fill="#000000" />
<rect x="34" y="18" width="1" height="1" fill="#000000" />
<rect x="35" y="18" width="1" height="1" fill="#000000" />
<rect x="36" y="18" width="1" height="1" fill="#000000" />
<rect x="37" y="18" width="1" height="1" fill="#000000" />
<rect x="38" y="18" width="1" height="1" fill="#DFEF7C" />
<rect x="39" y="18" width="1" height="1" fill="#DFEF7C" />
<rect x="40" y="18" width="1" height="1" fill="#4B8341" />
<rect x="41" y="18" width="1" height="1" fill="#DFEF7C" />
<rect x="42" y="18" width="1" height="1" fill="#4B8341" />
<rect x="43" y="18" width="1" height="1" fill="#4B8341" />
<rect x="44" y="18" width="1" height="1" fill="#202734" />
<rect x="45" y="18" width="1" height="1" fill="#2D4548" />
<rect x="46" y="18" width="1" height="1" fill="#000000" />
<rect x="47" y="18" width="1" height="1" fill="#000000" />
<rect x="14" y="19" width="1" height="1" fill="#000000" />
<rect x="15" y="19" width="1" height="1" fill="#2D4548" />
<rect x="16" y="19" width="1" height="1" fill="#202734" />
<rect x="17" y="19" width="1" height="1" fill="#4B8341" />
<rect x="18" y="19" width="1" height="1" fill="#4B8341" />
<rect x="19" y="19" width="1" height="1" fill="#000000" />
<rect x="20" y="19" width="1" height="1" fill="#000000" />
<rect x="21" y="19" width="1" height="1" fill="#000000" />
<rect x="22" y="19" width="1" height="1" fill="#000000" />
<rect x="23" y="19" width="1" height="1" fill="#000000" />
<rect x="24" y="19" width="1" height="1" fill="#000000" />
<rect x="25" y="19" width="1" height="1" fill="#000000" />
<rect x="26" y="19" width="1" height="1" fill="#000000" />
<rect x="27" y="19" width="1" height="1" fill="#000000" />
<rect x="28" y="19" width="1" height="1" fill="#000000" />
<rect x="29" y="19" width="1" height="1" fill="#000000" />
<rect x="30" y="19" width="1" height="1" fill="#000000" />
<rect x="31" y="19" width="1" height="1" fill="#000000" />
<rect x="32" y="19" width="1" height="1" fill="#323C39" />
<rect x="33" y="19" width="1" height="1" fill="#FBF236" />
<rect x="34" y="19" width="1" height="1" fill="#FBF236" />
<rect x="35" y="19" width="1" height="1" fill="#FBF236" />
<rect x="36" y="19" width="1" height="1" fill="#323C39" />
<rect x="37" y="19" width="1" height="1" fill="#323C39" />
<rect x="38" y="19" width="1" height="1" fill="#000000" />
<rect x="39" y="19" width="1" height="1" fill="#000000" />
<rect x="40" y="19" width="1" height="1" fill="#000000" />
<rect x="41" y="19" width="1" height="1" fill="#000000" />
<rect x="42" y="19" width="1" height="1" fill="#000000" />
<rect x="43" y="19" width="1" height="1" fill="#000000" />
<rect x="44" y="19" width="1" height="1" fill="#202734" />
<rect x="45" y="19" width="1" height="1" fill="#000000" />
<rect x="46" y="19" width="1" height="1" fill="#000000" />
<rect x="48" y="19" width="1" height="1" fill="#000000" />
<rect x="49" y="19" width="1" height="1" fill="#000000" />
<rect x="50" y="19" width="1" height="1" fill="#000000" />
<rect x="12" y="20" width="1" height="1" fill="#000000" />
<rect x="13" y="20" width="1" height="1" fill="#000000" />
<rect x="14" y="20" width="1" height="1" fill="#000000" />
<rect x="15" y="20" width="1" height="1" fill="#000000" />
<rect x="16" y="20" width="1" height="1" fill="#000000" />
<rect x="17" y="20" width="1" height="1" fill="#000000" />
<rect x="18" y="20" width="1" height="1" fill="#000000" />
<rect x="19" y="20" width="1" height="1" fill="#323C39" />
<rect x="20" y="20" width="1" height="1" fill="#FBF236" />
<rect x="21" y="20" width="1" height="1" fill="#FBF236" />
<rect x="22" y="20" width="1" height="1" fill="#FBF236" />
<rect x="23" y="20" width="1" height="1" fill="#323C39" />
<rect x="24" y="20" width="1" height="1" fill="#323C39" />
<rect x="25" y="20" width="1" height="1" fill="#323C39" />
<rect x="26" y="20" width="1" height="1" fill="#FBF236" />
<rect x="27" y="20" width="1" height="1" fill="#FBF236" />
<rect x="28" y="20" width="1" height="1" fill="#FBF236" />
<rect x="29" y="20" width="1" height="1" fill="#323C39" />
<rect x="30" y="20" width="1" height="1" fill="#323C39" />
<rect x="31" y="20" width="1" height="1" fill="#323C39" />
<rect x="32" y="20" width="1" height="1" fill="#FBF236" />
<rect x="33" y="20" width="1" height="1" fill="#FBF236" />
<rect x="34" y="20" width="1" height="1" fill="#FBF236" />
<rect x="35" y="20" width="1" height="1" fill="#323C39" />
<rect x="36" y="20" width="1" height="1" fill="#323C39" />
<rect x="37" y="20" width="1" height="1" fill="#323C39" />
<rect x="38" y="20" width="1" height="1" fill="#FBF236" />
<rect x="39" y="20" width="1" height="1" fill="#FBF236" />
<rect x="40" y="20" width="1" height="1" fill="#FBF236" />
<rect x="41" y="20" width="1" height="1" fill="#323C39" />
<rect x="42" y="20" width="1" height="1" fill="#323C39" />
<rect x="43" y="20" width="1" height="1" fill="#323C39" />
<rect x="44" y="20" width="1" height="1" fill="#000000" />
<rect x="45" y="20" width="1" height="1" fill="#000000" />
<rect x="46" y="20" width="1" height="1" fill="#000000" />
<rect x="47" y="20" width="1" height="1" fill="#000000" />
<rect x="48" y="20" width="1" height="1" fill="#323C39" />
<rect x="49" y="20" width="1" height="1" fill="#323C39" />
<rect x="50" y="20" width="1" height="1" fill="#000000" />
<rect x="11" y="21" width="1" height="1" fill="#000000" />
<rect x="12" y="21" width="1" height="1" fill="#323C39" />
<rect x="13" y="21" width="1" height="1" fill="#FBF236" />
<rect x="14" y="21" width="1" height="1" fill="#FBF236" />
<rect x="15" y="21" width="1" height="1" fill="#FBF236" />
<rect x="16" y="21" width="1" height="1" fill="#323C39" />
<rect x="17" y="21" width="1" height="1" fill="#323C39" />
<rect x="18" y="21" width="1" height="1" fill="#323C39" />
<rect x="19" y="21" width="1" height="1" fill="#FBF236" />
<rect x="20" y="21" width="1" height="1" fill="#FBF236" />
<rect x="21" y="21" width="1" height="1" fill="#FBF236" />
<rect x="22" y="21" width="1" height="1" fill="#323C39" />
<rect x="23" y="21" width="1" height="1" fill="#323C39" />
<rect x="24" y="21" width="1" height="1" fill="#323C39" />
<rect x="25" y="21" width="1" height="1" fill="#FBF236" />
<rect x="26" y="21" width="1" height="1" fill="#FBF236" />
<rect x="27" y="21" width="1" height="1" fill="#FBF236" />
<rect x="28" y="21" width="1" height="1" fill="#323C39" />
<rect x="29" y="21" width="1" height="1" fill="#323C39" />
<rect x="30" y="21" width="1" height="1" fill="#323C39" />
<rect x="31" y="21" width="1" height="1" fill="#FBF236" />
<rect x="32" y="21" width="1" height="1" fill="#FBF236" />
<rect x="33" y="21" width="1" height="1" fill="#FBF236" />
<rect x="34" y="21" width="1" height="1" fill="#323C39" />
<rect x="35" y="21" width="1" height="1" fill="#323C39" />
<rect x="36" y="21" width="1" height="1" fill="#323C39" />
<rect x="37" y="21" width="1" height="1" fill="#FBF236" />
<rect x="38" y="21" width="1" height="1" fill="#FBF236" />
<rect x="39" y="21" width="1" height="1" fill="#FBF236" />
<rect x="40" y="21" width="1" height="1" fill="#323C39" />
<rect x="41" y="21" width="1" height="1" fill="#323C39" />
<rect x="42" y="21" width="1" height="1" fill="#323C39" />
<rect x="43" y="21" width="1" height="1" fill="#FBF236" />
<rect x="44" y="21" width="1" height="1" fill="#FBF236" />
<rect x="45" y="21" width="1" height="1" fill="#FBF236" />
<rect x="46" y="21" width="1" height="1" fill="#323C39" />
<rect x="47" y="21" width="1" height="1" fill="#323C39" />
<rect x="48" y="21" width="1" height="1" fill="#323C39" />
<rect x="49" y="21" width="1" height="1" fill="#000000" />
<rect x="50" y="21" width="1" height="1" fill="#000000" />
<rect x="11" y="22" width="1" height="1" fill="#000000" />
<rect x="12" y="22" width="1" height="1" fill="#FBF236" />
<rect x="13" y="22" width="1" height="1" fill="#FBF236" />
<rect x="14" y="22" width="1" height="1" fill="#FBF236" />
<rect x="15" y="22" width="1" height="1" fill="#323C39" />
<rect x="16" y="22" width="1" height="1" fill="#323C39" />
<rect x="17" y="22" width="1" height="1" fill="#323C39" />
<rect x="18" y="22" width="1" height="1" fill="#FBF236" />
<rect x="19" y="22" width="1" height="1" fill="#FBF236" />
<rect x="20" y="22" width="1" height="1" fill="#FBF236" />
<rect x="21" y="22" width="1" height="1" fill="#323C39" />
<rect x="22" y="22" width="1" height="1" fill="#323C39" />
<rect x="23" y="22" width="1" height="1" fill="#323C39" />
<rect x="24" y="22" width="1" height="1" fill="#FBF236" />
<rect x="25" y="22" width="1" height="1" fill="#FBF236" />
<rect x="26" y="22" width="1" height="1" fill="#FBF236" />
<rect x="27" y="22" width="1" height="1" fill="#323C39" />
<rect x="28" y="22" width="1" height="1" fill="#323C39" />
<rect x="29" y="22" width="1" height="1" fill="#323C39" />
<rect x="30" y="22" width="1" height="1" fill="#FBF236" />
<rect x="31" y="22" width="1" height="1" fill="#FBF236" />
<rect x="32" y="22" width="1" height="1" fill="#FBF236" />
<rect x="33" y="22" width="1" height="1" fill="#323C39" />
<rect x="34" y="22" width="1" height="1" fill="#323C39" />
<rect x="35" y="22" width="1" height="1" fill="#323C39" />
<rect x="36" y="22" width="1" height="1" fill="#FBF236" />
<rect x="37" y="22" width="1" height="1" fill="#FBF236" />
<rect x="38" y="22" width="1" height="1" fill="#FBF236" />
<rect x="39" y="22" width="1" height="1" fill="#323C39" />
<rect x="40" y="22" width="1" height="1" fill="#323C39" />
<rect x="41" y="22" width="1" height="1" fill="#323C39" />
<rect x="42" y="22" width="1" height="1" fill="#FBF236" />
<rect x="43" y="22" width="1" height="1" fill="#FBF236" />
<rect x="44" y="22" width="1" height="1" fill="#FBF236" />
<rect x="45" y="22" width="1" height="1" fill="#323C39" />
<rect x="46" y="22" width="1" height="1" fill="#323C39" />
<rect x="47" y="22" width="1" height="1" fill="#323C39" />
<rect x="48" y="22" width="1" height="1" fill="#FBF236" />
<rect x="49" y="22" width="1" height="1" fill="#000000" />
<rect x="50" y="22" width="1" height="1" fill="#000000" />
<rect x="12" y="23" width="1" height="1" fill="#000000" />
<rect x="13" y="23" width="1" height="1" fill="#FBF236" />
<rect x="14" y="23" width="1" height="1" fill="#323C39" />
<rect x="15" y="23" width="1" height="1" fill="#323C39" />
<rect x="16" y="23" width="1" height="1" fill="#323C39" />
<rect x="17" y="23" width="1" height="1" fill="#FBF236" />
<rect x="18" y="23" width="1" height="1" fill="#FBF236" />
<rect x="19" y="23" width="1" height="1" fill="#FBF236" />
<rect x="20" y="23" width="1" height="1" fill="#323C39" />
<rect x="21" y="23" width="1" height="1" fill="#323C39" />
<rect x="22" y="23" width="1" height="1" fill="#323C39" />
<rect x="23" y="23" width="1" height="1" fill="#FBF236" />
<rect x="24" y="23" width="1" height="1" fill="#FBF236" />
<rect x="25" y="23" width="1" height="1" fill="#FBF236" />
<rect x="26" y="23" width="1" height="1" fill="#323C39" />
<rect x="27" y="23" width="1" height="1" fill="#323C39" />
<rect x="28" y="23" width="1" height="1" fill="#323C39" />
<rect x="29" y="23" width="1" height="1" fill="#FBF236" />
<rect x="30" y="23" width="1" height="1" fill="#FBF236" />
<rect x="31" y="23" width="1" height="1" fill="#FBF236" />
<rect x="32" y="23" width="1" height="1" fill="#323C39" />
<rect x="33" y="23" width="1" height="1" fill="#323C39" />
<rect x="34" y="23" width="1" height="1" fill="#323C39" />
<rect x="35" y="23" width="1" height="1" fill="#FBF236" />
<rect x="36" y="23" width="1" height="1" fill="#FBF236" />
<rect x="37" y="23" width="1" height="1" fill="#FBF236" />
<rect x="38" y="23" width="1" height="1" fill="#323C39" />
<rect x="39" y="23" width="1" height="1" fill="#323C39" />
<rect x="40" y="23" width="1" height="1" fill="#323C39" />
<rect x="41" y="23" width="1" height="1" fill="#FBF236" />
<rect x="42" y="23" width="1" height="1" fill="#FBF236" />
<rect x="43" y="23" width="1" height="1" fill="#FBF236" />
<rect x="44" y="23" width="1" height="1" fill="#323C39" />
<rect x="45" y="23" width="1" height="1" fill="#323C39" />
<rect x="46" y="23" width="1" height="1" fill="#323C39" />
<rect x="47" y="23" width="1" height="1" fill="#FBF236" />
<rect x="48" y="23" width="1" height="1" fill="#FBF236" />
<rect x="49" y="23" width="1" height="1" fill="#000000" />
<rect x="50" y="23" width="1" height="1" fill="#000000" />
<rect x="12" y="24" width="1" height="1" fill="#000000" />
<rect x="13" y="24" width="1" height="1" fill="#323C39" />
<rect x="14" y="24" width="1" height="1" fill="#323C39" />
<rect x="15" y="24" width="1" height="1" fill="#323C39" />
<rect x="16" y="24" width="1" height="1" fill="#FBF236" />
<rect x="17" y="24" width="1" height="1" fill="#FBF236" />
<rect x="18" y="24" width="1" height="1" fill="#FBF236" />
<rect x="19" y="24" width="1" height="1" fill="#323C39" />
<rect x="20" y="24" width="1" height="1" fill="#323C39" />
<rect x="21" y="24" width="1" height="1" fill="#323C39" />
<rect x="22" y="24" width="1" height="1" fill="#FBF236" />
<rect x="23" y="24" width="1" height="1" fill="#FBF236" />
<rect x="24" y="24" width="1" height="1" fill="#FBF236" />
<rect x="25" y="24" width="1" height="1" fill="#323C39" />
<rect x="26" y="24" width="1" height="1" fill="#323C39" />
<rect x="27" y="24" width="1" height="1" fill="#323C39" />
<rect x="28" y="24" width="1" height="1" fill="#FBF236" />
<rect x="29" y="24" width="1" height="1" fill="#FBF236" />
<rect x="30" y="24" width="1" height="1" fill="#FBF236" />
<rect x="31" y="24" width="1" height="1" fill="#323C39" />
<rect x="32" y="24" width="1" height="1" fill="#000000" />
<rect x="33" y="24" width="1" height="1" fill="#000000" />
<rect x="34" y="24" width="1" height="1" fill="#000000" />
<rect x="35" y="24" width="1" height="1" fill="#000000" />
<rect x="36" y="24" width="1" height="1" fill="#000000" />
<rect x="37" y="24" width="1" height="1" fill="#000000" />
<rect x="38" y="24" width="1" height="1" fill="#323C39" />
<rect x="39" y="24" width="1" height="1" fill="#323C39" />
<rect x="40" y="24" width="1" height="1" fill="#FBF236" />
<rect x="41" y="24" width="1" height="1" fill="#FBF236" />
<rect x="42" y="24" width="1" height="1" fill="#FBF236" />
<rect x="43" y="24" width="1" height="1" fill="#323C39" />
<rect x="44" y="24" width="1" height="1" fill="#323C39" />
<rect x="45" y="24" width="1" height="1" fill="#323C39" />
<rect x="46" y="24" width="1" height="1" fill="#FBF236" />
<rect x="47" y="24" width="1" height="1" fill="#FBF236" />
<rect x="48" y="24" width="1" height="1" fill="#000000" />
<rect x="49" y="24" width="1" height="1" fill="#000000" />
<rect x="12" y="25" width="1" height="1" fill="#000000" />
<rect x="13" y="25" width="1" height="1" fill="#323C39" />
<rect x="14" y="25" width="1" height="1" fill="#323C39" />
<rect x="15" y="25" width="1" height="1" fill="#FBF236" />
<rect x="16" y="25" width="1" height="1" fill="#FBF236" />
<rect x="17" y="25" width="1" height="1" fill="#FBF236" />
<rect x="18" y="25" width="1" height="1" fill="#323C39" />
<rect x="19" y="25" width="1" height="1" fill="#000000" />
<rect x="20" y="25" width="1" height="1" fill="#000000" />
<rect x="21" y="25" width="1" height="1" fill="#000000" />
<rect x="22" y="25" width="1" height="1" fill="#000000" />
<rect x="23" y="25" width="1" height="1" fill="#000000" />
<rect x="24" y="25" width="1" height="1" fill="#000000" />
<rect x="25" y="25" width="1" height="1" fill="#000000" />
<rect x="26" y="25" width="1" height="1" fill="#000000" />
<rect x="27" y="25" width="1" height="1" fill="#000000" />
<rect x="28" y="25" width="1" height="1" fill="#000000" />
<rect x="29" y="25" width="1" height="1" fill="#000000" />
<rect x="30" y="25" width="1" height="1" fill="#000000" />
<rect x="31" y="25" width="1" height="1" fill="#000000" />
<rect x="32" y="25" width="1" height="1" fill="#000000" />
<rect x="33" y="25" width="1" height="1" fill="#000000" />
<rect x="34" y="25" width="1" height="1" fill="#000000" />
<rect x="35" y="25" width="1" height="1" fill="#000000" />
<rect x="36" y="25" width="1" height="1" fill="#000000" />
<rect x="37" y="25" width="1" height="1" fill="#000000" />
<rect x="38" y="25" width="1" height="1" fill="#000000" />
<rect x="39" y="25" width="1" height="1" fill="#000000" />
<rect x="40" y="25" width="1" height="1" fill="#000000" />
<rect x="41" y="25" width="1" height="1" fill="#000000" />
<rect x="42" y="25" width="1" height="1" fill="#000000" />
<rect x="43" y="25" width="1" height="1" fill="#000000" />
<rect x="44" y="25" width="1" height="1" fill="#323C39" />
<rect x="45" y="25" width="1" height="1" fill="#FBF236" />
<rect x="46" y="25" width="1" height="1" fill="#FBF236" />
<rect x="47" y="25" width="1" height="1" fill="#FBF236" />
<rect x="48" y="25" width="1" height="1" fill="#000000" />
<rect x="49" y="25" width="1" height="1" fill="#000000" />
<rect x="13" y="26" width="1" height="1" fill="#000000" />
<rect x="14" y="26" width="1" height="1" fill="#000000" />
<rect x="15" y="26" width="1" height="1" fill="#000000" />
<rect x="16" y="26" width="1" height="1" fill="#000000" />
<rect x="17" y="26" width="1" height="1" fill="#000000" />
<rect x="18" y="26" width="1" height="1" fill="#000000" />
<rect x="19" y="26" width="1" height="1" fill="#000000" />
<rect x="20" y="26" width="1" height="1" fill="#000000" />
<rect x="21" y="26" width="1" height="1" fill="#000000" />
<rect x="22" y="26" width="1" height="1" fill="#000000" />
<rect x="23" y="26" width="1" height="1" fill="#000000" />
<rect x="24" y="26" width="1" height="1" fill="#000000" />
<rect x="25" y="26" width="1" height="1" fill="#000000" />
<rect x="26" y="26" width="1" height="1" fill="#000000" />
<rect x="27" y="26" width="1" height="1" fill="#000000" />
<rect x="28" y="26" width="1" height="1" fill="#000000" />
<rect x="29" y="26" width="1" height="1" fill="#000000" />
<rect x="30" y="26" width="1" height="1" fill="#000000" />
<rect x="31" y="26" width="1" height="1" fill="#000000" />
<rect x="32" y="26" width="1" height="1" fill="#2D4548" />
<rect x="33" y="26" width="1" height="1" fill="#202734" />
<rect x="34" y="26" width="1" height="1" fill="#2D4548" />
<rect x="35" y="26" width="1" height="1" fill="#202734" />
<rect x="36" y="26" width="1" height="1" fill="#2D4548" />
<rect x="37" y="26" width="1" height="1" fill="#202734" />
<rect x="38" y="26" width="1" height="1" fill="#000000" />
<rect x="39" y="26" width="1" height="1" fill="#000000" />
<rect x="40" y="26" width="1" height="1" fill="#000000" />
<rect x="41" y="26" width="1" height="1" fill="#000000" />
<rect x="42" y="26" width="1" height="1" fill="#000000" />
<rect x="43" y="26" width="1" height="1" fill="#000000" />
<rect x="44" y="26" width="1" height="1" fill="#000000" />
<rect x="45" y="26" width="1" height="1" fill="#000000" />
<rect x="46" y="26" width="1" height="1" fill="#000000" />
<rect x="47" y="26" width="1" height="1" fill="#000000" />
<rect x="13" y="27" width="1" height="1" fill="#000000" />
<rect x="14" y="27" width="1" height="1" fill="#000000" />
<rect x="15" y="27" width="1" height="1" fill="#000000" />
<rect x="16" y="27" width="1" height="1" fill="#000000" />
<rect x="17" y="27" width="1" height="1" fill="#000000" />
<rect x="18" y="27" width="1" height="1" fill="#000000" />
<rect x="19" y="27" width="1" height="1" fill="#000000" />
<rect x="20" y="27" width="1" height="1" fill="#2D4548" />
<rect x="21" y="27" width="1" height="1" fill="#2D4548" />
<rect x="22" y="27" width="1" height="1" fill="#202734" />
<rect x="23" y="27" width="1" height="1" fill="#2D4548" />
<rect x="24" y="27" width="1" height="1" fill="#202734" />
<rect x="25" y="27" width="1" height="1" fill="#4B8341" />
<rect x="26" y="27" width="1" height="1" fill="#000000" />
<rect x="27" y="27" width="1" height="1" fill="#000000" />
<rect x="28" y="27" width="1" height="1" fill="#000000" />
<rect x="29" y="27" width="1" height="1" fill="#000000" />
<rect x="30" y="27" width="1" height="1" fill="#000000" />
<rect x="31" y="27" width="1" height="1" fill="#000000" />
<rect x="32" y="27" width="1" height="1" fill="#000000" />
<rect x="33" y="27" width="1" height="1" fill="#000000" />
<rect x="34" y="27" width="1" height="1" fill="#000000" />
<rect x="35" y="27" width="1" height="1" fill="#000000" />
<rect x="36" y="27" width="1" height="1" fill="#000000" />
<rect x="37" y="27" width="1" height="1" fill="#000000" />
<rect x="38" y="27" width="1" height="1" fill="#000000" />
<rect x="39" y="27" width="1" height="1" fill="#000000" />
<rect x="40" y="27" width="1" height="1" fill="#000000" />
<rect x="41" y="27" width="1" height="1" fill="#000000" />
<rect x="42" y="27" width="1" height="1" fill="#000000" />
<rect x="44" y="27" width="1" height="1" fill="#000000" />
<rect x="45" y="27" width="1" height="1" fill="#000000" />
<rect x="46" y="27" width="1" height="1" fill="#000000" />
<rect x="47" y="27" width="1" height="1" fill="#000000" />
<rect x="18" y="28" width="1" height="1" fill="#000000" />
<rect x="19" y="28" width="1" height="1" fill="#000000" />
<rect x="20" y="28" width="1" height="1" fill="#000000" />
<rect x="21" y="28" width="1" height="1" fill="#000000" />
<rect x="22" y="28" width="1" height="1" fill="#000000" />
<rect x="23" y="28" width="1" height="1" fill="#000000" />
<rect x="24" y="28" width="1" height="1" fill="#000000" />
<rect x="25" y="28" width="1" height="1" fill="#000000" />
<rect x="26" y="28" width="1" height="1" fill="#000000" />
<rect x="27" y="28" width="1" height="1" fill="#000000" />
<rect x="30" y="28" width="1" height="1" fill="#000000" />
<rect x="31" y="28" width="1" height="1" fill="#000000" />
<rect x="32" y="28" width="1" height="1" fill="#000000" />
<rect x="33" y="28" width="1" height="1" fill="#000000" />
<rect x="34" y="28" width="1" height="1" fill="#000000" />
<rect x="35" y="28" width="1" height="1" fill="#000000" />
<rect x="36" y="28" width="1" height="1" fill="#000000" />
<rect x="37" y="28" width="1" height="1" fill="#000000" />
<rect x="38" y="28" width="1" height="1" fill="#000000" />
<rect x="39" y="28" width="1" height="1" fill="#000000" />
<rect x="40" y="28" width="1" height="1" fill="#000000" />
<rect x="20" y="29" width="1" height="1" fill="#000000" />
<rect x="21" y="29" width="1" height="1" fill="#000000" />
<rect x="22" y="29" width="1" height="1" fill="#000000" />
<rect x="23" y="29" width="1" height="1" fill="#000000" />
<rect x="24" y="29" width="1" height="1" fill="#000000" />
<rect x="25" y="29" width="1" height="1" fill="#000000" />
</svg>